<?xml version="1.0" encoding="utf-8"?>
<!-- Generator: Adobe Illustrator 22.0.0, SVG Export Plug-In . SVG Version: 6.00 Build 0)  -->
<svg version="1.1" id="Layer_1" xmlns="http://www.w3.org/2000/svg" xmlns:xlink="http://www.w3.org/1999/xlink" x="0px" y="0px"
	 viewBox="0 0 500 500" style="enable-background:new 0 0 500 500;" xml:space="preserve">
<style type="text/css">
	.st0{fill:#FDDF7F;}
	.st1{fill:#ECF4F7;}
	.st2{fill:#83E1E5;}
	.st3{fill:#1C1D21;}
	.st4{fill:#AAB1BA;}
</style>
<g>
	<circle class="st2" cx="250" cy="250" r="202.523"/>
</g>
<g>
	<path class="st0" d="M414.53,221.751l-64.067-22.479l10.315-68.624c0.408-2.716-2.221-4.89-4.812-3.979l-69.562,24.451
		l-32.483-61.597c-1.364-2.586-5.065-2.594-6.439-0.013l-33.045,62.037l-70.549-24.753c-2.591-0.909-5.219,1.266-4.81,3.982
		l10.331,68.498l-63.942,22.475c-2.099,0.738-3.053,3.168-2.015,5.137l45.189,85.731l-18.033,33.854
		c-1.293,2.427,0.466,5.357,3.216,5.357h35.485l22.331,42.365c1.914,3.632,7.439,1.817,6.827-2.243l-6.051-40.123h155.116
		l-6.015,40.015c-0.61,4.058,4.912,5.871,6.826,2.242l22.292-42.256h35.571c2.743,0,4.503-2.917,3.223-5.344l-17.984-34.103
		l45.1-85.49C417.586,224.92,416.631,222.488,414.53,221.751z"/>
</g>
<g>
	<polygon class="st1" points="371.446,312.38 350.636,351.826 327.532,351.826 341.884,256.352 	"/>
</g>
<g>
	<polygon class="st1" points="158.145,257.196 128.642,312.615 149.31,351.826 172.417,351.826 	"/>
</g>
<g>
	<polygon class="st1" points="214.438,151.546 198.119,182.151 249.846,163.969 	"/>
</g>
<g>
	<polygon class="st1" points="286.405,151.119 249.846,163.969 303,182.619 	"/>
</g>
<g>
	<polygon class="st1" points="303,182.619 341.884,256.352 350.463,199.272 	"/>
</g>
<g>
	<polygon class="st1" points="198.119,182.151 158.145,257.196 149.41,199.272 	"/>
</g>
<path class="st3" d="M262.124,15.833c0-2.761,2.239-5,5-5h5.833V5c0-2.761,2.239-5,5-5s5,2.239,5,5v5.833h5.833c2.761,0,5,2.239,5,5
	s-2.239,5-5,5h-5.833v5.833c0,2.761-2.239,5-5,5s-5-2.239-5-5v-5.833h-5.833C264.363,20.833,262.124,18.594,262.124,15.833z
	 M231.815,479.167h-5.833v-5.833c0-2.761-2.239-5-5-5s-5,2.239-5,5v5.833h-5.833c-2.761,0-5,2.239-5,5s2.239,5,5,5h5.833V495
	c0,2.761,2.239,5,5,5s5-2.239,5-5v-5.833h5.833c2.761,0,5-2.239,5-5S234.577,479.167,231.815,479.167z M250,457.523
	c-114.429,0-207.523-93.094-207.523-207.523S135.571,42.477,250,42.477S457.523,135.571,457.523,250S364.429,457.523,250,457.523z
	 M250,447.523c108.915,0,197.523-88.608,197.523-197.523S358.915,52.477,250,52.477S52.477,141.085,52.477,250
	S141.085,447.523,250,447.523z M245.22,20.88c0.034,0,0.068,0,0.102-0.001c1.556-0.031,3.115-0.046,4.678-0.046c2.761,0,5-2.239,5-5
	s-2.239-5-5-5c-1.63,0-3.256,0.016-4.877,0.048c-2.761,0.055-4.955,2.338-4.899,5.099C240.278,18.707,242.505,20.88,245.22,20.88z
	 M226.571,22.016c2.748-0.279,4.749-2.732,4.47-5.479c-0.279-2.747-2.734-4.743-5.479-4.47
	c-58.608,5.95-112.8,33.338-152.594,77.119C32.9,133.269,10.833,190.38,10.833,250c0,2.761,2.239,5,5,5s5-2.239,5-5
	C20.833,131.935,109.281,33.922,226.571,22.016z M255.614,479.1c-1.864,0.044-3.752,0.067-5.614,0.067c-2.761,0-5,2.239-5,5
	s2.239,5,5,5c1.94,0,3.909-0.023,5.852-0.07c2.761-0.066,4.945-2.357,4.879-5.118C260.666,481.218,258.373,479.016,255.614,479.1z
	 M484.167,245c-2.761,0-5,2.239-5,5c0,116.187-86.88,214.027-202.09,227.585c-2.742,0.323-4.704,2.808-4.381,5.55
	c0.299,2.544,2.459,4.416,4.959,4.416c0.195,0,0.393-0.011,0.591-0.035C398.491,473.366,489.167,371.256,489.167,250
	C489.167,247.239,486.928,245,484.167,245z M183.412,391.203c0.642,4.252-1.764,8.159-5.849,9.501
	c-0.929,0.305-1.868,0.452-2.786,0.452c-3.119,0-6.01-1.694-7.559-4.633l-20.925-39.697h-32.484c-3.064,0-5.834-1.568-7.411-4.195
	c-1.577-2.626-1.658-5.809-0.218-8.513l16.795-31.531l-43.946-83.372c-1.173-2.226-1.319-4.845-0.4-7.187
	c0.918-2.342,2.807-4.164,5.18-4.999l60.039-21.103l-9.714-64.407c-0.456-3.025,0.678-5.996,3.035-7.947
	c2.356-1.951,5.487-2.51,8.374-1.499l66.485,23.327l31.024-58.243c1.505-2.827,4.428-4.58,7.629-4.58c0.006,0,0.012,0,0.018,0
	c3.208,0.006,6.131,1.773,7.628,4.611l30.474,57.787l65.506-23.025c0,0,0,0,0,0c2.886-1.015,6.018-0.456,8.375,1.494
	c2.358,1.95,3.494,4.92,3.039,7.946l-9.7,64.533l60.163,21.109c2.375,0.833,4.265,2.655,5.185,4.998
	c0.919,2.344,0.774,4.965-0.401,7.191l-43.878,83.173l16.746,31.755c0,0,0,0,0,0c1.425,2.703,1.334,5.879-0.245,8.496
	s-4.345,4.179-7.401,4.179h-32.54l-20.886,39.59c-2.006,3.802-6.257,5.519-10.342,4.179c-4.083-1.341-6.49-5.246-5.851-9.497
	l5.152-34.271H178.227L183.412,391.203z M323.228,346.826l13.467-89.594l-37.202-70.545l-49.646-17.419l-48.232,16.953
	l-38.28,71.865l13.383,88.74H323.228z M155.455,272.883l-21.162,39.729l18.034,34.214h14.279L155.455,272.883z M160.836,241.509
	l26.839-50.387l-32.704,11.496L160.836,241.509z M234.756,163.974l-17.937-6.294l-8.257,15.501L234.756,163.974z M292.635,173.683
	l-8.655-16.412l-19.044,6.694L292.635,173.683z M344.904,202.621l-31.539-11.066l25.838,48.995L344.904,202.621z M333.34,346.826
	h14.281l18.164-34.431l-21.221-40.241L333.34,346.826z M342.346,356.826h-10.509l-4.187,27.856L342.346,356.826z M371.437,323.112
	l-12.51,23.714h25.016L371.437,323.112z M354.51,205.991l-7.438,49.481l24.367,46.207l39.951-75.73L354.51,205.991z
	 M293.518,153.919l12.99,24.632l39.91,14.003l9.082-60.421L293.518,153.919z M221.575,148.751l28.27,9.919l29.42-10.341
	l-28.588-54.211L221.575,148.751z M144.359,132.256l9.093,60.295l41.169-14.471l12.651-23.75L144.359,132.256z M128.657,301.921
	l24.297-45.615l-7.588-50.312l-56.758,19.95L128.657,301.921z M141.022,346.826l-12.412-23.547l-12.543,23.547H141.022z
	 M172.329,384.774l-4.215-27.948h-10.517L172.329,384.774z"/>
</svg>
